<svg xmlns="http://www.w3.org/2000/svg" fill="none" viewBox="2.9920044 7.744004400000001 58.344 50.160000000000004" style="max-height: 500px" width="58.344" height="50.160000000000004">
<rect stroke="#BCC1CA" height="65" width="65" y="0.394897" x="0.5"/>
<path fill="#636AE8" d="M40.7216 39.1883C40.7216 39.6667 40.4315 40.098 39.9843 40.271L33.0727 42.9224C30.6408 43.8559 28.7346 45.8013 27.8403 48.2566L25.2122 55.4983C25.1932 55.5522 25.1521 55.5903 25.1252 55.6391C25.1031 55.6796 25.081 55.7187 25.0534 55.7559C25.0111 55.8116 24.9694 55.8617 24.9166 55.9068C24.8356 55.979 24.7467 56.0425 24.6474 56.0862C24.5848 56.1097 24.5216 56.1327 24.4591 56.1414C24.3965 56.1566 24.334 56.1649 24.2707 56.1649L24.0672 56.1414C24.0039 56.1327 23.9414 56.1097 23.8782 56.0862C23.7752 56.0416 23.6844 55.9767 23.6022 55.9022C23.552 55.859 23.5108 55.8097 23.4697 55.7564C23.4458 55.7242 23.4268 55.6911 23.4072 55.6575C23.3741 55.6032 23.3287 55.5586 23.306 55.4983L20.6779 48.2566C19.791 45.8013 17.8848 43.8559 15.4535 42.9224L8.54183 40.271C8.09471 40.098 7.79663 39.6667 7.79663 39.1883C7.79663 38.6862 8.12599 38.2389 8.60439 38.0898L14.9272 36.0972C17.6651 35.2342 19.8229 33.1163 20.7484 30.4018L23.3213 22.8001C23.3526 22.7143 23.3919 22.6358 23.4391 22.5653C23.4703 22.5174 23.5023 22.4707 23.5489 22.4316C23.6433 22.3298 23.7611 22.2512 23.9022 22.1961C23.9414 22.1805 23.9886 22.1647 24.0352 22.1573C24.1064 22.1328 24.1843 22.1254 24.2628 22.1254C24.3413 22.1254 24.4198 22.1328 24.4904 22.1573C24.5375 22.1647 24.5848 22.1805 24.624 22.1961C24.7491 22.2433 24.8589 22.3217 24.9534 22.4081C24.9927 22.447 25.024 22.4867 25.0552 22.5253C25.1178 22.6118 25.173 22.6978 25.2043 22.8001L27.7772 30.4018C28.6954 33.1163 30.8604 35.2342 33.5903 36.0972L39.9132 38.0898C40.3996 38.2389 40.7216 38.6862 40.7216 39.1883Z"/>
<path fill="#E8618C" d="M58.6528 25.4272C58.6528 25.6891 58.4941 25.9253 58.2494 26.0197L54.4645 27.472C53.1328 27.9831 52.0891 29.0483 51.5996 30.3928L50.1607 34.3579C50.1502 34.3874 50.1276 34.4082 50.1129 34.4353C50.1005 34.4574 50.089 34.4789 50.0738 34.499C50.0503 34.5292 50.0278 34.5568 49.9988 34.5812C49.9547 34.6217 49.9054 34.6555 49.8512 34.6799C49.8171 34.6928 49.7822 34.7058 49.7481 34.7101C49.7136 34.7187 49.6791 34.7231 49.6451 34.7231L49.5333 34.7101C49.4988 34.7058 49.4648 34.6928 49.4303 34.6799C49.3737 34.6547 49.324 34.6198 49.2794 34.5795C49.2513 34.5556 49.2292 34.5285 49.2062 34.4997C49.1934 34.4818 49.1832 34.464 49.1722 34.4456C49.1543 34.4156 49.129 34.3912 49.117 34.3579L47.6781 30.3928C47.1924 29.0483 46.1483 27.9831 44.8168 27.472L41.0325 26.0197C40.7872 25.9253 40.624 25.6891 40.624 25.4272C40.624 25.1519 40.8049 24.9078 41.0669 24.8256L44.5291 23.735C46.0281 23.2621 47.2094 22.1023 47.7168 20.6164L49.1253 16.4541C49.1428 16.4064 49.1639 16.3633 49.1897 16.3247C49.2072 16.2991 49.2242 16.2732 49.2499 16.2519C49.3015 16.1961 49.3659 16.1524 49.4431 16.123C49.4648 16.1144 49.4905 16.1058 49.5163 16.1009C49.5549 16.0887 49.5977 16.0844 49.6405 16.0844C49.6837 16.0844 49.7265 16.0887 49.7651 16.1009C49.7914 16.1058 49.8171 16.1144 49.8383 16.123C49.9068 16.1486 49.9675 16.1917 50.0191 16.2389C50.0407 16.2603 50.0577 16.2818 50.0743 16.3039C50.1092 16.3506 50.1387 16.3978 50.1566 16.4541L51.5651 20.6164C52.0674 22.1023 53.2538 23.2621 54.7483 23.735L58.2107 24.8256C58.4771 24.9078 58.6528 25.1519 58.6528 25.4272Z"/>
<path fill="#22CCB2" d="M40.5083 15.4207C40.5083 15.593 40.4034 15.7482 40.2421 15.8108L37.7501 16.7669C36.8731 17.1038 36.1855 17.8053 35.8635 18.6904L34.9159 21.3013C34.9091 21.3209 34.8938 21.3343 34.884 21.3523C34.876 21.3665 34.8681 21.3811 34.8583 21.394C34.8429 21.4141 34.8282 21.4326 34.8092 21.4486C34.7797 21.475 34.7479 21.4975 34.7123 21.5128C34.689 21.5215 34.6669 21.5308 34.6442 21.5332C34.6215 21.5387 34.5988 21.5411 34.5761 21.5411L34.5025 21.5332C34.4798 21.5308 34.4577 21.5215 34.4344 21.5128C34.3976 21.497 34.3651 21.4738 34.3351 21.4472C34.3173 21.4314 34.3026 21.4136 34.2872 21.3945C34.2793 21.3835 34.2719 21.3713 34.2651 21.3584C34.2529 21.3387 34.2363 21.3233 34.2283 21.3013L33.2807 18.6904C32.9612 17.8053 32.2737 17.1038 31.3966 16.7669L28.9046 15.8108C28.7433 15.7482 28.636 15.593 28.636 15.4207C28.636 15.2391 28.755 15.0779 28.9273 15.024L31.2071 14.3057C32.1945 13.9947 32.9723 13.2312 33.3065 12.2522L34.2339 9.51119C34.2449 9.48005 34.2596 9.45176 34.2762 9.42586C34.2879 9.4093 34.2989 9.39233 34.3161 9.3782C34.3498 9.34131 34.3927 9.31302 34.4436 9.29338C34.4577 9.28786 34.4743 9.28188 34.4915 9.2788C34.5166 9.27015 34.5455 9.26849 34.5737 9.26849C34.6019 9.26849 34.6301 9.27015 34.6552 9.2788C34.6724 9.28188 34.689 9.28786 34.7037 9.29338C34.7491 9.31012 34.7883 9.33892 34.8221 9.37006C34.8368 9.38368 34.8478 9.39785 34.8589 9.41197C34.8815 9.44311 34.9018 9.47453 34.9128 9.51119L35.8408 12.2522C36.1714 13.2312 36.9522 13.9947 37.9366 14.3057L40.2169 15.024C40.3917 15.0779 40.5083 15.2391 40.5083 15.4207Z"/>
</svg>