<?xml version="1.0" encoding="UTF-8"?>
<svg version="1.1" xmlns="http://www.w3.org/2000/svg" width="400" height="400">
<path d="M0 0 C3.34388776 3.41882626 4.73266619 6.51857075 5.921875 11.10546875 C6.37626953 12.82733398 6.37626953 12.82733398 6.83984375 14.58398438 C7.29037109 16.36772461 7.29037109 16.36772461 7.75 18.1875 C8.06582031 19.38826172 8.38164062 20.58902344 8.70703125 21.82617188 C11 30.63573796 11 30.63573796 11 33 C29.48 33 47.96 33 67 33 C68.32 27.39 69.64 21.78 71 16 C74.82284552 2.33043116 74.82284552 2.33043116 78 0 C81.38318857 -0.36248449 83.86784865 -0.58433618 86.9375 1 C90.50875228 7.72235724 86.62615259 16.37963859 84.625 23.0625 C84.28855469 24.11244141 83.95210937 25.16238281 83.60546875 26.24414062 C81.82907668 31.81382281 81.82907668 31.81382281 83.13964844 37.23388672 C84.66102392 38.99124363 86.24950269 40.4773461 88 42 C91.54665135 49.0933027 88.33277489 59.19926927 86.48828125 66.43359375 C85.97301592 68.56698694 85.45805048 70.70045258 84.94335938 72.83398438 C84.12618301 76.15578532 83.30289367 79.47593369 82.47338867 82.79467773 C81.67087911 86.02485574 80.89098476 89.2598691 80.11328125 92.49609375 C79.85718582 93.49088242 79.60109039 94.48567108 79.3372345 95.51060486 C79.0065522 96.8983889 79.0065522 96.8983889 78.66918945 98.31420898 C78.36607597 99.5301902 78.36607597 99.5301902 78.05683899 100.77073669 C77.98109288 103.74154992 79.17394132 104.73628126 81 107 C81.1875 110.5 81.1875 110.5 81 114 C81 118.87406092 82.80159034 120.93912214 85.5625 124.6875 C112.97438886 163.37946244 162.8386974 244.97892081 157 295 C154.74894373 300.32067846 151.37587018 302.3569293 146.3203125 304.65625 C122.66407761 314.23006741 98.29274085 319.83115172 73 323 C72.19844482 323.1045752 71.39688965 323.20915039 70.57104492 323.31689453 C60.41623903 324.44644114 50.14111554 324.24399344 39.9375 324.25 C38.39591217 324.25101212 38.39591217 324.25101212 36.82318115 324.25204468 C21.02309041 324.2355731 5.59752706 323.75407155 -10 321 C-11.010625 320.82307617 -12.02125 320.64615234 -13.0625 320.46386719 C-30.49856312 317.30902952 -47.37132414 312.65288687 -63.9375 306.375 C-64.67726074 306.0980127 -65.41702148 305.82102539 -66.17919922 305.53564453 C-70.93306195 303.66706781 -75.41178108 301.69979744 -78.10961914 297.11376953 C-81.51309831 289.03388946 -77.51004514 279.60614981 -75.125 271.75 C-74.71513279 270.37454684 -74.30538565 268.99905789 -73.89575195 267.62353516 C-59.09866193 218.33849445 -38.83565959 162.21969041 -5.34423828 122.01220703 C-3.77701909 119.6662171 -3.60834668 118.35399356 -3.55859375 115.55859375 C-3.53216797 114.72779297 -3.50574219 113.89699219 -3.47851562 113.04101562 C-3.46498047 112.18185547 -3.45144531 111.32269531 -3.4375 110.4375 C-3.40302252 108.72767227 -3.36039347 107.01798439 -3.30859375 105.30859375 C-3.29626709 104.55376709 -3.28394043 103.79894043 -3.27124023 103.02124023 C-3 101 -3 101 -1 98 C-1.0881755 96.01574844 -1.0881755 96.01574844 -1.69091797 93.88671875 C-1.89127655 93.06155762 -2.09163513 92.23639648 -2.29806519 91.38623047 C-2.52712555 90.49564941 -2.75618591 89.60506836 -2.9921875 88.6875 C-3.21697784 87.76340332 -3.44176819 86.83930664 -3.67337036 85.88720703 C-4.63592026 81.93225485 -5.62816682 77.98489848 -6.61767578 74.03662109 C-7.3361089 71.15183581 -8.03935868 68.26361988 -8.7421875 65.375 C-9.07970535 64.06341919 -9.07970535 64.06341919 -9.42404175 62.7253418 C-11.19931571 55.42042812 -12.80596791 47.42511156 -9.1875 40.5625 C-7.9165348 39.07365505 -6.62860492 37.59837074 -5.29956055 36.16113281 C-3.75368725 34.06916023 -3.75368725 34.06916023 -4.21020508 31.56152344 C-4.47728271 30.66981445 -4.74436035 29.77810547 -5.01953125 28.859375 C-5.29990234 27.87066406 -5.58027344 26.88195312 -5.86914062 25.86328125 C-6.33610352 24.32220703 -6.33610352 24.32220703 -6.8125 22.75 C-11.70915023 6.21722396 -11.70915023 6.21722396 -8.9375 1 C-5.78136563 -0.62897258 -3.47848951 -0.48820905 0 0 Z M-4 4 C-6.34555992 6.78850264 -6.34555992 6.78850264 -5.58447266 9.72729492 C-5.2807373 10.80084229 -4.97700195 11.87438965 -4.6640625 12.98046875 C-4.34179688 14.14384766 -4.01953125 15.30722656 -3.6875 16.50585938 C-3.336875 17.72080078 -2.98625 18.93574219 -2.625 20.1875 C-2.28210938 21.41404297 -1.93921875 22.64058594 -1.5859375 23.90429688 C-0.73555892 26.93967596 0.12683549 29.97111182 1 33 C2.65 33 4.3 33 6 33 C3.39214235 21.4881947 3.39214235 21.4881947 0.4375 10.0625 C0.22996094 9.31097656 0.02242188 8.55945313 -0.19140625 7.78515625 C-0.9761745 5.63378878 -0.9761745 5.63378878 -4 4 Z M81 4 C77.4693494 8.88777756 76.31370218 14.44586498 74.8125 20.1875 C74.53986328 21.19748047 74.26722656 22.20746094 73.98632812 23.24804688 C72.56144126 28.05989889 72.56144126 28.05989889 72 33 C73.65 33 75.3 33 77 33 C79.31 24.09 81.62 15.18 84 6 C83.01 5.34 82.02 4.68 81 4 Z M-4.3125 42.375 C-7.03645238 46.61225926 -7.24592221 50.04790708 -6.24658203 54.91040039 C-6.05532745 55.85810806 -5.86407288 56.80581573 -5.66702271 57.78224182 C-5.44948334 58.79382858 -5.23194397 59.80541534 -5.0078125 60.84765625 C-4.78358612 61.89650497 -4.55935974 62.9453537 -4.32833862 64.02598572 C-3.84831647 66.24040537 -3.36209163 68.45348828 -2.87011719 70.6652832 C-2.12837087 74.04713119 -1.43925877 77.43720181 -0.75 80.83007812 C-0.27666803 82.9824838 0.19979182 85.13420449 0.6796875 87.28515625 C0.87698456 88.29876724 1.07428162 89.31237823 1.27755737 90.35670471 C2.477608 95.68009329 2.477608 95.68009329 6.08970642 99.5330658 C15.98428473 104.0952947 26.42847274 102.64762332 36.57421875 99.55859375 C39 99 39 99 42 100 C42.66 100.99 43.32 101.98 44 103 C46.91064379 103.41789089 46.91064379 103.41789089 50.3203125 103.29296875 C51.57714844 103.28330078 52.83398438 103.27363281 54.12890625 103.26367188 C55.44761719 103.23853516 56.76632813 103.21339844 58.125 103.1875 C59.46482903 103.17245483 60.80467404 103.15876613 62.14453125 103.14648438 C65.43008842 103.11102872 68.71484582 103.06160849 72 103 C74.23526769 96.65557455 76.01639403 90.28926522 77.55078125 83.7421875 C77.7732402 82.79489777 77.99569916 81.84760803 78.22489929 80.87161255 C78.68876554 78.88393038 79.14997907 76.89562743 79.60864258 74.90673828 C80.07913088 72.88019519 80.55736877 70.85543615 81.04321289 68.83251953 C81.75004745 65.8894005 82.43412521 62.94180073 83.11328125 59.9921875 C83.33293045 59.0941037 83.55257965 58.1960199 83.77888489 57.27072144 C85.0095595 51.77595933 85.12355222 48.25684536 83 43 C80.58574632 40.00067649 77.65630551 38.2187685 74 37 C71.7781069 36.89521101 69.55318527 36.85132856 67.32885742 36.83886719 C66.31853203 36.83141983 66.31853203 36.83141983 65.28779602 36.82382202 C63.06034318 36.80922211 60.83296158 36.80240166 58.60546875 36.796875 C57.05471292 36.79112126 55.5039571 36.78536356 53.95320129 36.77960205 C50.70081247 36.7690979 47.44844832 36.76325157 44.19604492 36.75976562 C40.03653691 36.75428551 35.877357 36.73026558 31.71795177 36.70179367 C28.51368774 36.68313211 25.30950215 36.6779598 22.10518837 36.67642975 C20.57224041 36.67341006 19.0392936 36.66540462 17.50639915 36.65224457 C15.35712405 36.63511162 13.20864263 36.63708156 11.05932617 36.64355469 C9.22757088 36.63808624 9.22757088 36.63808624 7.35881042 36.63250732 C2.40711064 37.1742805 -0.85250729 38.82149397 -4.3125 42.375 Z M2 103 C0.66098208 104.11126659 0.66098208 104.11126659 0.90234375 106.94140625 C0.91394531 108.13636719 0.92554688 109.33132812 0.9375 110.5625 C0.94652344 111.76003906 0.95554687 112.95757812 0.96484375 114.19140625 C0.97644531 115.11824219 0.98804688 116.04507813 1 117 C4.3 116.34 7.6 115.68 11 115 C11 112.03 11 109.06 11 106 C8.03 105.01 5.06 104.02 2 103 Z M33.4375 104.5 C32.61121094 104.7784375 31.78492188 105.056875 30.93359375 105.34375 C30.29550781 105.5603125 29.65742188 105.776875 29 106 C29 108.64 29 111.28 29 114 C33.81209901 116.29045014 33.81209901 116.29045014 39 117 C39 112.38 39 107.76 39 103 C37.08075164 103 35.23605176 103.89203884 33.4375 104.5 Z M16 108 C15.58333333 110.5 15.58333333 110.5 16 113 C18.69155201 115.264384 18.69155201 115.264384 21.0625 114.75 C23.19476975 114.07467282 23.19476975 114.07467282 25 112 C24.71016731 108.69316534 24.71016731 108.69316534 23 106 C19.038832 105.60909667 19.038832 105.60909667 16 108 Z M44 108 C44 109.65 44 111.3 44 113 C48.2358357 113.02469321 52.47163342 113.04285671 56.70751953 113.05493164 C58.1489332 113.05996474 59.59034176 113.06679173 61.03173828 113.07543945 C63.10190085 113.08754983 65.17199601 113.09323847 67.2421875 113.09765625 C69.11173096 113.10551147 69.11173096 113.10551147 71.01904297 113.11352539 C73.92771106 113.20816587 73.92771106 113.20816587 76 112 C76 110.68 76 109.36 76 108 C65.44 108 54.88 108 44 108 Z M44 117 C43.54625 117.680625 43.0925 118.36125 42.625 119.0625 C42.08875 119.701875 41.5525 120.34125 41 121 C37.92636966 121.12221194 35.01354659 120.56233644 32 120 C30.00019268 119.66551265 28.00023353 119.33192909 26 119 C22.61239336 130.75890381 19.89742351 142.65626766 17.34692383 154.62005615 C16.99569583 156.26632709 16.64193005 157.91205903 16.28540039 159.55718994 C13.88537499 170.66423818 12.12328523 181.69123779 11 193 C19.73082382 195.91027461 29.89085817 195.15745537 39 195.125 C40.62808594 195.13080078 40.62808594 195.13080078 42.2890625 195.13671875 C54.81829009 195.35454473 54.81829009 195.35454473 67 193 C65.83720488 180.87370803 63.7764552 169.07752221 61.22363281 157.16992188 C60.62454998 154.37289895 60.03797243 151.5734679 59.453125 148.7734375 C57.2942528 131.83242706 57.2942528 131.83242706 51 117 C47.58399407 116.58307147 47.58399407 116.58307147 44 117 Z M56 117 C58.64 127.89 61.28 138.78 64 150 C70.45913528 149.2823183 74.57093872 148.7214058 80.375 146.5625 C81.55835938 146.13066406 82.74171875 145.69882813 83.9609375 145.25390625 C87.09959428 144.07473974 87.09959428 144.07473974 90 142 C88.68442446 138.35612522 87.09124608 135.49153555 84.77734375 132.390625 C84.15666016 131.55402344 83.53597656 130.71742188 82.89648438 129.85546875 C81.92678711 128.56576172 81.92678711 128.56576172 80.9375 127.25 C80.28716797 126.37472656 79.63683594 125.49945313 78.96679688 124.59765625 C76.16131728 120.64948943 76.16131728 120.64948943 73 117 C70.13530675 116.92669669 67.30106326 116.90782169 64.4375 116.9375 C61.653125 116.958125 58.86875 116.97875 56 117 Z M4.37109375 120.0625 C-3.34456493 124.49699212 -9.126431 133.66825523 -12 142 C-3.43119903 146.61256733 4.16364157 150 14 150 C16.31 140.1 18.62 130.2 21 120 C13.73975954 117.92564558 11.19411277 117.79078962 4.37109375 120.0625 Z M-15 146 C-19.84375718 152.9078206 -23.9104568 160.12225434 -27.875 167.5625 C-28.46796875 168.66658203 -29.0609375 169.77066406 -29.671875 170.90820312 C-31.11861609 173.60334177 -32.56121892 176.30060614 -34 179 C-27.85803466 185.44580425 -18.04271314 187.42725598 -9.6875 189.8125 C-8.5591272 190.14096924 -8.5591272 190.14096924 -7.40795898 190.47607422 C-2.79035944 191.74288997 1.21352459 192.22130335 6 192 C8.35404221 179.67050163 10.69625375 167.33900454 13 155 C11.47632813 154.65388672 11.47632813 154.65388672 9.921875 154.30078125 C1.22754775 152.26278349 -6.85966362 149.76182212 -15 146 Z M92 146 C89.84150976 146.87426341 89.84150976 146.87426341 87.375 148.1875 C82.52662962 150.5110966 77.80309228 151.95024202 72.6015625 153.17578125 C71.86719971 153.35387329 71.13283691 153.53196533 70.3762207 153.7154541 C68.58542424 154.14894633 66.79288505 154.57522868 65 155 C65.83325635 159.78770616 66.66950996 164.57487541 67.50854492 169.36157227 C67.7935497 170.9900088 68.07773507 172.61858898 68.36108398 174.24731445 C68.76851481 176.58843625 69.1788901 178.92902561 69.58984375 181.26953125 C69.71592514 181.99775589 69.84200653 182.72598053 69.97190857 183.47627258 C70.48938963 186.40953347 71.05639713 189.16919138 72 192 C78.13972891 192.35179893 83.31344055 191.09802923 89.1875 189.375 C90.11135498 189.10864746 91.03520996 188.84229492 91.98706055 188.56787109 C99.11340631 186.43614899 105.55935052 183.7603792 112 180 C107.83130797 171.34821739 103.47345445 162.85600237 98.625 154.5625 C98.19654785 153.82330322 97.7680957 153.08410645 97.32666016 152.32250977 C95.28972756 148.5464321 95.28972756 148.5464321 92 146 Z M-37 185 C-38.62189027 188.60519054 -40.2390474 192.21246667 -41.85229492 195.8215332 C-42.66415 197.63533278 -43.47948497 199.44757352 -44.29492188 201.25976562 C-50.76945387 213.7215261 -50.76945387 213.7215261 -54 227 C-36.08607815 233.46662309 -17.819465 237.29268118 1 240 C1.57382171 234.84094601 2.14335137 229.68144259 2.70898438 224.52148438 C2.9018277 222.76777492 3.095824 221.01419183 3.29101562 219.26074219 C3.57207773 216.73405121 3.84893092 214.2069283 4.125 211.6796875 C4.25624268 210.51214432 4.25624268 210.51214432 4.39013672 209.3210144 C4.83696475 205.19038368 5.09263538 201.16280243 5 197 C3.8140625 196.78085938 2.628125 196.56171875 1.40625 196.3359375 C-8.28605828 194.46552736 -17.33312074 192.07417953 -26.484375 188.3671875 C-29.97189605 187.01092931 -33.39138822 185.97154933 -37 185 Z M108.87890625 186.609375 C97.04049696 191.38764378 85.5768203 194.81522665 73 197 C73.63786866 206.81994531 74.52116141 216.58940678 75.5625 226.375 C75.70268609 227.70831105 75.84266089 229.04164433 75.98242188 230.375 C76.31955282 233.58355661 76.65877179 236.79187701 77 240 C95.49110602 237.35517177 114.65889109 234.20999345 132 227 C129.89609823 219.08484634 126.86395201 211.76762442 123.5 204.3125 C122.53105587 202.14201374 121.56230065 199.97144313 120.59375 197.80078125 C120.14386719 196.79740723 119.69398438 195.7940332 119.23046875 194.76025391 C117.78628328 191.52057912 116.38309037 188.26614921 115 185 C112.58400883 185 111.11352213 185.68464 108.87890625 186.609375 Z M10 198 C7.72805995 211.96485819 6.12670146 225.89701515 5 240 C16.3132082 241.75983239 27.563063 242.22034968 39 242.25 C40.95486328 242.26353516 40.95486328 242.26353516 42.94921875 242.27734375 C53.08043594 242.24710131 62.95909702 241.27545035 73 240 C72.45232981 234.66107203 71.90088247 229.32255274 71.34594727 223.984375 C71.15773589 222.16872698 70.97055302 220.35297203 70.78442383 218.53710938 C70.51654735 215.92549233 70.24496188 213.31428348 69.97265625 210.703125 C69.89032242 209.89256653 69.80798859 209.08200806 69.72315979 208.24688721 C69.35528464 204.75016321 68.90988659 201.39516888 68 198 C67.36610352 198.03029297 66.73220703 198.06058594 66.07910156 198.09179688 C47.27153887 198.9799128 28.80577884 198.89870016 10 198 Z M-56 231 C-59.95157715 240.97966934 -63.40148581 251.09472395 -66.6875 261.3125 C-67.06769287 262.49166992 -67.44788574 263.67083984 -67.83959961 264.88574219 C-73.00650022 279.14471825 -73.00650022 279.14471825 -74 294 C-57.80968755 313.22599603 -12.42429141 316.71646145 10.74853516 318.74609375 C52.81346581 322.03093591 115.45533181 322.50957097 151 296 C153.69266175 290.6146765 151.67808532 283.91404546 150.05859375 278.484375 C149.85541031 277.79421799 149.65222687 277.10406097 149.44288635 276.39299011 C148.7859496 274.17502508 148.11268346 271.96247217 147.4375 269.75 C146.97950504 268.22478461 146.52182427 266.69947484 146.06445312 265.17407227 C143.5134446 256.71736225 140.87831704 248.28927333 138 239.9375 C137.72212646 239.12442383 137.44425293 238.31134766 137.15795898 237.47363281 C135.997993 233.50686937 135.997993 233.50686937 133 231 C130.97744199 231.43950608 130.97744199 231.43950608 128.6875 232.2578125 C127.3411145 232.69830933 127.3411145 232.69830933 125.9675293 233.14770508 C124.49860229 233.63146606 124.49860229 233.63146606 123 234.125 C104.49891006 239.97847702 85.34678647 243.51247084 66 245 C64.90365234 245.08459473 64.90365234 245.08459473 63.78515625 245.17089844 C58.5267462 245.555938 53.26931488 245.82120089 48 246 C47.31599121 246.02336426 46.63198242 246.04672852 45.92724609 246.07080078 C10.93831065 247.06713563 -22.66593228 241.16173128 -56 231 Z " fill="#020064" transform="translate(161,38)"/>
</svg>
